<svg xmlns="http://www.w3.org/2000/svg" viewBox="0 0 740 400" role="img" aria-label="BlindCollective C4 container structure">
  <rect width="740" height="400" fill="#f4f7fb"/>
  <text x="24" y="28" font-family="Arial, Helvetica, sans-serif" font-size="13" font-weight="700" fill="#1e1e1e">BlindCollective - C4 Containers</text>
  <text x="24" y="46" font-family="Arial, Helvetica, sans-serif" font-size="11" fill="#555">AI recommends. Legal acts pass policy and signatures.</text>
  <g font-family="Arial, Helvetica, sans-serif" font-size="10" fill="#fff" text-anchor="middle">
    <rect x="40" y="62" width="88" height="36" rx="6" fill="#1168BD"/><text x="84" y="84">Buyer</text>
    <rect x="146" y="62" width="88" height="36" rx="6" fill="#1168BD"/><text x="190" y="84">Supplier</text>
    <rect x="252" y="62" width="88" height="36" rx="6" fill="#1168BD"/><text x="296" y="84">Operator</text>
    <rect x="612" y="62" width="88" height="36" rx="6" fill="#999"/><text x="656" y="84">ERP</text>
  </g>
  <line x1="84" y1="98" x2="84" y2="118" stroke="#888" stroke-width="1.2"/>
  <line x1="190" y1="98" x2="190" y2="118" stroke="#888" stroke-width="1.2"/>
  <line x1="296" y1="98" x2="296" y2="118" stroke="#888" stroke-width="1.2"/>
  <g font-family="Arial, Helvetica, sans-serif" font-size="10" fill="#fff" text-anchor="middle">
    <rect x="28" y="118" width="110" height="42" rx="5" fill="#438DD5"/><text x="83" y="136">Buyer Console</text><text x="83" y="150" font-size="8" fill="#e8f3ff">Next.js</text>
    <rect x="148" y="118" width="110" height="42" rx="5" fill="#438DD5"/><text x="203" y="136">Supplier Console</text><text x="203" y="150" font-size="8" fill="#e8f3ff">Next.js</text>
    <rect x="268" y="118" width="110" height="42" rx="5" fill="#438DD5"/><text x="323" y="136">Operator Console</text><text x="323" y="150" font-size="8" fill="#e8f3ff">Next.js</text>
  </g>
  <line x1="203" y1="160" x2="203" y2="178" stroke="#888" stroke-width="1.2"/>
  <g font-family="Arial, Helvetica, sans-serif" font-size="11" fill="#fff" text-anchor="middle">
    <rect x="118" y="178" width="170" height="36" rx="5" fill="#438DD5"/><text x="203" y="200">API Edge / FAPI 2.0</text>
  </g>
  <line x1="203" y1="214" x2="203" y2="232" stroke="#888" stroke-width="1.2"/>
  <g font-family="Arial, Helvetica, sans-serif" font-size="10" fill="#fff" text-anchor="middle">
    <rect x="24" y="232" width="128" height="52" rx="5" fill="#438DD5"/><text x="88" y="252">Control Plane</text><text x="88" y="268" font-size="8" fill="#e8f3ff">Go + Temporal + OPA</text>
    <rect x="164" y="226" width="148" height="64" rx="6" fill="#c45c26" stroke="#8a3d14" stroke-width="2"/><text x="238" y="248" font-size="11" font-weight="700">Intelligence Plane</text><text x="238" y="264" font-size="8" fill="#fff6ee">Python contract AI</text><text x="238" y="278" font-size="8" fill="#fff6ee">intent compiler</text>
    <rect x="324" y="232" width="136" height="52" rx="5" fill="#2a7a6a"/><text x="392" y="252">Confidential Compute</text><text x="392" y="268" font-size="8" fill="#e8fff8">TEE / ZK / nullifiers</text>
  </g>
  <line x1="88" y1="284" x2="88" y2="302" stroke="#888" stroke-width="1.2"/>
  <line x1="238" y1="290" x2="238" y2="302" stroke="#888" stroke-width="1.2"/>
  <line x1="392" y1="284" x2="392" y2="302" stroke="#888" stroke-width="1.2"/>
  <g font-family="Arial, Helvetica, sans-serif" font-size="10" fill="#fff" text-anchor="middle">
    <rect x="24" y="302" width="120" height="40" rx="5" fill="#438DD5"/><text x="84" y="326">Market Plane</text>
    <rect x="156" y="302" width="120" height="40" rx="5" fill="#438DD5"/><text x="216" y="326">Settlement</text>
    <rect x="288" y="302" width="136" height="40" rx="5" fill="#6B4FBB"/><text x="356" y="320">Blockchain Plane</text><text x="356" y="334" font-size="8" fill="#eee8ff">anchor only, not a DB</text>
  </g>
  <line x1="356" y1="342" x2="356" y2="356" stroke="#888" stroke-width="1.2"/>
  <line x1="356" y1="356" x2="548" y2="356" stroke="#888" stroke-width="1.2"/>
  <line x1="548" y1="180" x2="548" y2="356" stroke="#888" stroke-width="1.2"/>
  <g font-family="Arial, Helvetica, sans-serif" font-size="10" fill="#fff" text-anchor="middle">
    <rect x="488" y="118" width="120" height="52" rx="5" fill="#438DD5"/><text x="548" y="138">Edge Agent</text><text x="548" y="154" font-size="8" fill="#e8f3ff">Rust on-prem</text>
    <rect x="488" y="182" width="120" height="40" rx="5" fill="#438DD5"/><text x="548" y="206">PostgreSQL</text>
    <rect x="488" y="232" width="120" height="40" rx="5" fill="#438DD5"/><text x="548" y="256">Event Bus</text>
    <rect x="488" y="282" width="120" height="40" rx="5" fill="#6B4FBB"/><text x="548" y="306">EVM L2</text>
  </g>
  <line x1="656" y1="98" x2="656" y2="144" stroke="#888" stroke-width="1.2"/>
  <line x1="608" y1="144" x2="656" y2="144" stroke="#888" stroke-width="1.2"/>
</svg>